<svg width="20" height="20" viewBox="0 0 20 20" fill="#707071" xmlns="http://www.w3.org/2000/svg">
<g clip-path="url(#clip0_100_255)">
<path d="M19.2591 20.0002C19.1021 19.8901 18.9247 19.7998 18.7906 19.6663C17.1335 18.0185 15.4822 16.3651 13.8304 14.7122C13.7751 14.6569 13.726 14.5958 13.6634 14.5249C13.4918 14.6563 13.3358 14.7795 13.1761 14.8974C8.44755 18.3953 1.65654 15.9555 0.24835 10.248C0.141393 9.81443 0.10487 9.36416 0.0344351 8.92118C0.0250437 8.86431 0.0114784 8.80796 0 8.75109C0 8.42552 0 8.09994 0 7.77488C0.0506091 7.42165 0.079305 7.06425 0.154958 6.71624C0.831659 3.59456 2.66089 1.44075 5.69118 0.433237C9.51348 -0.837764 13.5184 0.761944 15.4833 4.26033C16.353 5.80942 16.6661 7.48218 16.4553 9.24885C16.2643 10.8538 15.6502 12.2787 14.6245 13.5273C14.5958 13.5622 14.5702 13.5993 14.5363 13.6441C14.5869 13.6979 14.6339 13.7495 14.6829 13.7986C16.3718 15.4875 18.0617 17.1764 19.7506 18.8659C20.1581 19.2739 20.0553 19.7638 19.5226 19.9746C19.5116 19.9788 19.5033 19.9908 19.4939 19.9997H19.2596L19.2591 20.0002ZM8.26077 15.271C12.1274 15.271 15.2631 12.1415 15.2714 8.27316C15.2798 4.40172 12.1373 1.255 8.26285 1.25396C4.39673 1.25292 1.25897 4.38503 1.25218 8.25177C1.2454 12.1243 4.38734 15.271 8.26077 15.271Z" fill="#707071"/>
</g>
<defs>
<clipPath id="clip0_100_255">
<rect width="20" height="20" fill="#707071"/>
</clipPath>
</defs>
</svg>
